# xmcd
#
# Track frame offsets: 
#        150
#        28540
#        48022
#        79518
#        100847
#        128886
#        150990
#        173604
#        190708
#
# Disc length: 2849 seconds
#
# Revision: 1
# Processed by: cddbd v1.5.2PL0 Copyright (c) Steve Scherf et al.
# Submitted via: ExactAudioCopy v0.99pb4
#
DISCID=580b1f09
DTITLE=Eugene Maslov - When I Need To Smile
DYEAR=1999
DGENRE=Jazz
TTITLE0=Kolobok
TTITLE1=Here Comes Juliette
TTITLE2=Clear Out of This World
TTITLE3=When I Need To Smile
TTITLE4=Living in the Past
TTITLE5=The Man I Love
TTITLE6=Dindi
TTITLE7=Milestones
TTITLE8=Sweet Lana
EXTD=YEAR: 1999
EXTT0=
EXTT1=
EXTT2=
EXTT3=
EXTT4=
EXTT5=
EXTT6=
EXTT7=
EXTT8=
PLAYORDER=
